HIERARCHY
ROOT Hips
{
	OFFSET 0.00000 0.00000 0.00000
	CHANNELS 6 Xposition Yposition Zposition Zrotation Yrotation Xrotation 
	JOINT RightUpLegDummy
	{
		OFFSET 0 0 0
		CHANNELS 3 Zrotation Yrotation Xrotation
		JOINT RightUpLeg
		{
			OFFSET -3.52197 -3.41223 0.04002
			CHANNELS 3 Zrotation Yrotation Xrotation
			JOINT RightLeg
			{
				OFFSET 0.00006 -17.42390 1.60435
				CHANNELS 3 Zrotation Yrotation Xrotation
				JOINT RightFoot
				{
					OFFSET 0.06153 -16.50078 -1.63901
					CHANNELS 3 Zrotation Yrotation Xrotation
					JOINT RightToes
					{
						OFFSET 0.00298 -1.73825 3.34613
						CHANNELS 3 Zrotation Yrotation Xrotation
						End Site
						{
							OFFSET 0.00480 -0.05416 3.85043
						}
					}
				}
			}
		}
	}
	JOINT SpineDummy
	{
		OFFSET 0 0 0
		CHANNELS 3 Zrotation Yrotation Xrotation
		JOINT Spine
		{
			OFFSET 0.00000 4.68130 0.00000
			CHANNELS 3 Zrotation Yrotation Xrotation
			JOINT Spine1
			{
				OFFSET -0.00000 10.10138 0.05002
				CHANNELS 3 Zrotation Yrotation Xrotation
				JOINT HEadDummy
				{
					OFFSET 0 0 0
					CHANNELS 3 Zrotation Yrotation Xrotation
					JOINT Head
					{
						OFFSET -0.00000 3.43865 0.00438
						CHANNELS 3 Zrotation Yrotation Xrotation
						End Site
						{
							OFFSET -0.11417 5.02924 0.98962
						}
					}
				}
				JOINT LeftShoulder1Dummy
				{
					OFFSET 0 0 0
					CHANNELS 3 Zrotation Yrotation Xrotation
					JOINT LeftShoulder1
					{
						OFFSET 3.53937 -0.14262 -0.08662
						CHANNELS 3 Zrotation Yrotation Xrotation
						JOINT LeftArm
						{
							OFFSET 4.04833 -0.00133 0.12681
							CHANNELS 3 Zrotation Yrotation Xrotation
							JOINT LeftForeArm
							{
								OFFSET 10.33880 -0.01036 -0.55515
								CHANNELS 3 Zrotation Yrotation Xrotation
								JOINT LeftHand
								{
									OFFSET 8.69677 0.07543 0.40060
									CHANNELS 3 Zrotation Yrotation Xrotation
									End Site
									{
										OFFSET 5.28377 -0.21905 0.59205
									}
								}
							}
						}
					}
				}
				JOINT RightShoulderDummy
				{
					OFFSET 0 0 0
					CHANNELS 3 Zrotation Yrotation Xrotation
					JOINT RightShoulder
					{
						OFFSET -3.53937 -0.14262 -0.08660
						CHANNELS 3 Zrotation Yrotation Xrotation
						JOINT RightArm
						{
							OFFSET -4.04833 -0.00133 0.12683
							CHANNELS 3 Zrotation Yrotation Xrotation
							JOINT RightForeArm
							{
								OFFSET -10.37987 -0.01039 -0.55511
								CHANNELS 3 Zrotation Yrotation Xrotation
								JOINT RightHand
								{
									OFFSET -8.67398 0.07538 0.40058
									CHANNELS 3 Zrotation Yrotation Xrotation
									End Site
									{
										OFFSET -5.24810 -0.21916 0.59204
									}
								}
							}
						}
					}
				}
			}
		}
	}
	JOINT LeftUpLegDummy
	{
		OFFSET 0 0 0
		CHANNELS 3 Zrotation Yrotation Xrotation
		JOINT LeftUpLeg
		{
			OFFSET 3.52197 -3.41223 0.04002
			CHANNELS 3 Zrotation Yrotation Xrotation
			JOINT LeftLeg
			{
				OFFSET -0.00012 -17.42399 1.60337
				CHANNELS 3 Zrotation Yrotation Xrotation
				JOINT LeftFoot
				{
					OFFSET -0.09972 -16.50070 -1.63802
					CHANNELS 3 Zrotation Yrotation Xrotation
					JOINT LeftToes
					{
						OFFSET -0.01575 -1.73823 3.34611
						CHANNELS 3 Zrotation Yrotation Xrotation
						End Site
						{
							OFFSET 0.03150 -0.01868 3.85031
						}
					}
				}
			}
		}
	}
}
MOTION
Frames: 8
Frame Time: 0.033333
0.8583 40.1619 -2.4349 -1.9078 -7.2167 -1.9737 0.0000 0.0000 0.0000 2.5030 -1.1036 1.8515 -0.9051 -2.2954 3.1244 -2.4236 0.1631 -2.6053 0.0000 -0.0000 -0.0000 0.0000 0.0000 0.0000 2.4718 -0.6647 -4.9570 1.9617 -1.4331 6.5824 -0.0000 0.0000 -0.0000 5.1531 -0.8803 16.9910 -0.0000 0.0000 -0.0000 -33.0263 -3.4170 2.7020 -45.8417 -17.9725 -16.6843 -10.1846 4.9932 52.6575 16.6432 -3.1974 -1.2090 -0.0000 0.0000 -0.0000 25.1877 3.0089 2.0425 29.8614 64.0844 -11.1260 175.1361 73.1856 152.8193 -15.4148 -3.7984 -0.2356 0.0000 0.0000 0.0000 2.1243 2.1956 2.8690 3.3256 13.6946 6.0905 0.2917 0.0247 -5.5790 0.0000 0.0000 -0.0000
0.8482 40.1616 -2.4351 -1.8756 -7.2128 -2.0116 0.0000 0.0000 0.0000 2.4990 -1.0933 1.8951 -0.9357 -2.3075 3.1154 -2.4108 0.1622 -2.6002 0.0000 -0.0000 -0.0000 0.0000 0.0000 0.0000 2.9498 -0.3543 -5.0172 1.3386 -1.0038 6.5764 -0.0000 0.0000 -0.0000 5.9004 -2.2044 17.3633 -0.0000 0.0000 -0.0000 -32.7645 -3.3797 2.6693 -45.9370 -18.3948 -16.5473 -10.2003 4.9902 52.7467 16.6465 -3.1859 -1.2077 -0.0000 0.0000 -0.0000 23.6684 2.6717 1.8474 27.4270 69.2875 -14.5962 174.8563 73.5090 151.1856 -15.2873 -4.0892 -0.1970 0.0000 0.0000 0.0000 2.1194 2.2096 2.9405 3.2839 13.6872 6.0191 0.2938 0.0244 -5.5424 0.0000 0.0000 -0.0000
0.8313 40.1614 -2.4302 -1.8338 -6.9645 -2.0315 0.0000 0.0000 0.0000 2.4839 -1.1092 1.9408 -0.9707 -2.5316 3.1124 -2.4050 0.1617 -2.6213 0.0000 -0.0000 -0.0000 0.0000 0.0000 0.0000 3.1921 -0.1155 -5.1052 0.9089 -0.6754 6.6418 -0.0000 0.0000 -0.0000 6.6129 -3.4594 17.2272 -0.0000 0.0000 -0.0000 -32.5693 -3.3481 2.6436 -46.0505 -18.6932 -16.2700 -10.3307 4.9999 52.3881 16.6230 -2.9493 -1.1736 -0.0000 0.0000 -0.0000 22.5283 2.3421 1.6856 24.7075 72.5145 -17.8017 174.7244 73.2399 149.5019 -14.9354 -4.2224 -0.1768 0.0000 0.0000 0.0000 2.1289 2.2246 2.9705 3.1866 13.4384 5.9292 0.3559 0.0203 -5.5005 0.0000 0.0000 -0.0000
0.8155 40.1612 -2.4224 -1.8134 -6.4301 -2.0454 0.0000 0.0000 0.0000 2.4653 -1.1675 2.0012 -0.9850 -2.9979 3.1215 -2.4157 0.1624 -2.6851 0.0000 -0.0000 -0.0000 0.0000 0.0000 0.0000 3.2769 -0.0421 -5.1599 0.6222 -0.5374 6.6254 -0.0000 0.0000 -0.0000 7.1266 -4.3423 16.7984 -0.0000 0.0000 -0.0000 -32.4175 -3.4407 2.6687 -46.1878 -18.5641 -16.0023 -10.5133 5.0170 51.7733 16.5703 -2.8931 -1.1621 -0.0000 0.0000 -0.0000 22.0675 2.1112 1.5947 22.4989 74.1791 -19.9228 174.6848 72.5906 147.6252 -15.1129 -4.4891 -0.1453 0.0000 0.0000 0.0000 2.1536 2.2139 2.9236 3.0935 12.9255 5.9067 0.4280 0.0156 -5.4782 0.0000 0.0000 -0.0000
0.7975 40.1611 -2.4130 -1.8072 -5.7891 -2.0592 0.0000 0.0000 0.0000 2.4654 -1.2221 2.0708 -1.0091 -3.5756 3.1378 -2.4236 0.1630 -2.7747 0.0000 -0.0000 -0.0000 0.0000 0.0000 0.0000 3.1260 -0.1112 -5.2275 0.6575 -0.6043 6.5835 -0.0000 0.0000 -0.0000 7.3496 -4.7334 16.3706 -0.0000 0.0000 -0.0000 -32.3834 -3.5674 2.7150 -46.2767 -18.1261 -15.8468 -10.6736 5.0301 51.2891 16.5354 -3.2893 -1.2134 -0.0000 0.0000 -0.0000 22.1287 2.0667 1.5855 21.4662 74.8215 -20.7509 174.6286 72.0283 145.7324 -15.8631 -4.9208 -0.0940 0.0000 0.0000 0.0000 2.1967 2.2026 2.8424 3.0004 12.3033 5.9257 0.4856 0.0118 -5.4637 0.0000 0.0000 -0.0000
0.7722 40.1611 -2.4021 -1.7770 -5.2639 -2.0820 0.0000 0.0000 0.0000 2.4746 -1.2412 2.1409 -1.0703 -4.0733 3.1596 -2.4166 0.1626 -2.8572 0.0000 -0.0000 -0.0000 0.0000 0.0000 0.0000 2.7171 -0.2068 -5.3548 1.0767 -0.7698 6.6590 -0.0000 0.0000 -0.0000 7.3239 -4.7892 16.0400 -0.0000 0.0000 -0.0000 -32.5097 -3.5894 2.7324 -46.2728 -17.7481 -15.7049 -10.8286 5.0353 51.0562 16.6004 -3.7496 -1.2812 -0.0000 0.0000 -0.0000 22.3854 2.1624 1.6264 21.5245 74.9050 -20.7775 174.5840 71.6675 144.4142 -16.9187 -5.3766 -0.0337 0.0000 0.0000 0.0000 2.2401 2.2188 2.8130 2.8768 11.7694 5.8965 0.5224 0.0093 -5.4416 0.0000 0.0000 -0.0000
0.7464 40.1610 -2.3897 -1.7140 -4.9289 -2.1132 0.0000 0.0000 0.0000 2.4646 -1.2453 2.2002 -1.1447 -4.3980 3.1933 -2.4085 0.1621 -2.9211 0.0000 -0.0000 -0.0000 0.0000 0.0000 0.0000 2.3184 -0.2191 -5.5090 1.5226 -0.8581 6.8409 -0.0000 0.0000 -0.0000 7.2029 -4.7372 15.7612 -0.0000 0.0000 -0.0000 -32.6671 -3.5406 2.7247 -46.2481 -17.5759 -15.5206 -10.9689 5.0342 51.0332 16.6905 -3.7040 -1.2821 -0.0000 0.0000 -0.0000 22.6425 2.2734 1.6722 22.2374 74.6930 -20.4835 174.6989 71.1683 144.3275 -17.9014 -5.6196 0.0032 0.0000 0.0000 0.0000 2.2486 2.2352 2.8472 2.7622 11.4229 5.8194 0.5213 0.0092 -5.4252 0.0000 0.0000 -0.0000
0.7303 40.1610 -2.3762 -1.6581 -4.7358 -2.1372 0.0000 0.0000 0.0000 2.4394 -1.2594 2.2396 -1.1901 -4.5777 3.2347 -2.4119 0.1622 -2.9777 0.0000 -0.0000 -0.0000 0.0000 0.0000 0.0000 2.2139 -0.1358 -5.6567 1.6415 -0.7959 7.0298 -0.0000 0.0000 -0.0000 7.1491 -4.6168 15.5266 -0.0000 0.0000 -0.0000 -32.7323 -3.5385 2.7285 -46.2615 -17.4651 -15.5010 -10.9674 5.0260 51.3014 16.6484 -3.2615 -1.2183 -0.0000 0.0000 -0.0000 22.8035 2.3389 1.7000 23.2961 74.3703 -20.0538 174.9880 70.3735 145.3837 -18.4587 -5.4983 -0.0136 0.0000 0.0000 0.0000 2.2229 2.2193 2.8822 2.7196 11.2446 5.7786 0.5042 0.0102 -5.4314 0.0000 0.0000 -0.0000
